<svg width="1em" height="1em" viewBox="0 0 48 48" fill="none" xmlns="http://www.w3.org/2000/svg">
<circle cx="23.5" cy="23.5" r="10.5" fill="#FFBF00"/>
<path fill-rule="evenodd" clip-rule="evenodd" d="M24.4978 4.28113C24.3561 3.80446 23.681 3.80446 23.5393 4.28113L21.6617 10.5962C21.5562 10.9511 21.8601 11.2956 22.2285 11.2578C22.6423 11.2154 23.0622 11.1936 23.4872 11.1936C24.2798 11.1936 25.0548 11.2693 25.8054 11.4138C26.1898 11.4878 26.5347 11.1317 26.4231 10.7564L24.4978 4.28113ZM31.3076 13.1071C30.9834 13.2828 30.9535 13.7387 31.2382 13.9731C32.2495 14.8059 33.1251 15.7983 33.8267 16.912C34.0399 17.2503 34.5505 17.2504 34.7403 16.8983L38.2512 10.3873C38.4871 9.94992 38.0097 9.47359 37.5728 9.71042L31.3076 13.1071ZM36.2691 21.289C35.9084 21.1812 35.5599 21.4964 35.6078 21.8698C35.674 22.3863 35.7081 22.9129 35.7081 23.4475C35.7081 24.357 35.6093 25.2433 35.4219 26.0963C35.3364 26.4852 35.6964 26.8428 36.078 26.7288L43.6697 24.4594C44.1455 24.3172 44.1455 23.6435 43.6697 23.5013L36.2691 21.289ZM34.4226 30.4731C34.238 30.1308 33.747 30.1193 33.5252 30.4388C32.693 31.6378 31.6526 32.6807 30.4566 33.5148C30.1384 33.7367 30.1499 34.2259 30.4909 34.4108L37.5728 38.2502C38.0097 38.487 38.4871 38.0107 38.2512 37.5733L34.4226 30.4731ZM26.7602 36.0703C26.8737 35.6886 26.5155 35.329 26.1267 35.4149C25.2767 35.6025 24.3935 35.7014 23.4872 35.7014C22.9546 35.7014 22.43 35.6672 21.9154 35.601C21.5421 35.5529 21.2265 35.9009 21.3338 36.2617L23.5393 43.6795C23.681 44.1562 24.3561 44.1562 24.4978 43.6795L26.7602 36.0703ZM16.9589 34.7292C17.3096 34.5391 17.3096 34.0303 16.9725 33.817C15.8616 33.1138 14.8715 32.2361 14.0407 31.2222C13.8063 30.9363 13.3487 30.9662 13.1732 31.2917L9.78591 37.5733C9.55007 38.0107 10.0275 38.487 10.4643 38.2502L16.9589 34.7292ZM10.8282 26.3907C11.2034 26.5029 11.56 26.1585 11.4863 25.774C11.3419 25.0207 11.2663 24.243 11.2663 23.4475C11.2663 23.0208 11.2881 22.5993 11.3305 22.1838C11.3682 21.8154 11.0231 21.5117 10.6682 21.6177L4.36738 23.5013C3.89166 23.6435 3.89166 24.3172 4.36739 24.4594L10.8282 26.3907ZM12.832 16.0362C13.0123 16.3706 13.4876 16.3911 13.7156 16.0872C14.4085 15.1638 15.2285 14.3418 16.1496 13.6473C16.4522 13.4192 16.4318 12.9457 16.0987 12.7651L10.4643 9.71042C10.0275 9.47359 9.55007 9.94992 9.78591 10.3873L12.832 16.0362Z" fill="#FFBF00"/>
</svg>
