<svg width="1em" height="1em" viewBox="0 0 24 24" fill="none" xmlns="http://www.w3.org/2000/svg">
<path d="M4.22401 2.032L12 9.808L19.744 2.064C19.8797 1.91955 20.0432 1.80399 20.2247 1.72426C20.4061 1.64453 20.6018 1.60226 20.8 1.6C21.2244 1.6 21.6313 1.76857 21.9314 2.06863C22.2314 2.36869 22.4 2.77565 22.4 3.2C22.4037 3.39616 22.3673 3.59102 22.2931 3.77261C22.2188 3.9542 22.1082 4.11869 21.968 4.256L14.144 12L21.968 19.824C22.2317 20.082 22.3863 20.4313 22.4 20.8C22.4 21.2243 22.2314 21.6313 21.9314 21.9314C21.6313 22.2314 21.2244 22.4 20.8 22.4C20.5961 22.4085 20.3927 22.3744 20.2026 22.3001C20.0125 22.2257 19.84 22.1126 19.696 21.968L12 14.192L4.24001 21.952C4.10482 22.0916 3.94331 22.2031 3.76481 22.28C3.58631 22.3569 3.39435 22.3977 3.20001 22.4C2.77566 22.4 2.36869 22.2314 2.06864 21.9314C1.76858 21.6313 1.60001 21.2243 1.60001 20.8C1.59628 20.6038 1.63267 20.409 1.70696 20.2274C1.78125 20.0458 1.89186 19.8813 2.03201 19.744L9.85601 12L2.03201 4.176C1.7683 3.91801 1.61367 3.56866 1.60001 3.2C1.60001 2.77565 1.76858 2.36869 2.06864 2.06863C2.36869 1.76857 2.77566 1.6 3.20001 1.6C3.58401 1.6048 3.95201 1.76 4.22401 2.032Z" fill="currentColor"/>
</svg>
