<svg width="1em" height="1em" viewBox="0 0 24 24" fill="none" xmlns="http://www.w3.org/2000/svg">
<path d="M2 3.57895C2 3.16018 2.1317 2.75857 2.36612 2.46246C2.60054 2.16635 2.91848 2 3.25 2H15.75C16.0815 2 16.3995 2.16635 16.6339 2.46246C16.8683 2.75857 17 3.16018 17 3.57895C17 3.99771 16.8683 4.39932 16.6339 4.69543C16.3995 4.99154 16.0815 5.15789 15.75 5.15789H3.25C2.91848 5.15789 2.60054 4.99154 2.36612 4.69543C2.1317 4.39932 2 3.99771 2 3.57895V3.57895ZM2 20.4211C2 20.0023 2.1317 19.6007 2.36612 19.3046C2.60054 19.0085 2.91848 18.8421 3.25 18.8421H14.0833C14.4149 18.8421 14.7328 19.0085 14.9672 19.3046C15.2016 19.6007 15.3333 20.0023 15.3333 20.4211C15.3333 20.8398 15.2016 21.2414 14.9672 21.5375C14.7328 21.8336 14.4149 22 14.0833 22H3.25C2.91848 22 2.60054 21.8336 2.36612 21.5375C2.1317 21.2414 2 20.8398 2 20.4211V20.4211ZM3.25 10.4211C2.91848 10.4211 2.60054 10.5874 2.36612 10.8835C2.1317 11.1796 2 11.5812 2 12C2 12.4188 2.1317 12.8204 2.36612 13.1165C2.60054 13.4126 2.91848 13.5789 3.25 13.5789H20.75C21.0815 13.5789 21.3995 13.4126 21.6339 13.1165C21.8683 12.8204 22 12.4188 22 12C22 11.5812 21.8683 11.1796 21.6339 10.8835C21.3995 10.5874 21.0815 10.4211 20.75 10.4211H3.25Z" fill="currentColor"/>
</svg>
